<svg version="1.1" id="Layer_1" xmlns="http://www.w3.org/2000/svg" xmlnsXlink="http://www.w3.org/1999/xlink" x="0px" y="0px"
	 width="100%" viewBox="0 0 495 400" enableBackground="new 0 0 495 400" xmlSpace="preserve">
<path fill="#010102" opacity="1.000000" stroke="none" 
	d="
M306.000000,401.000000 
	C204.028336,401.000000 102.556664,401.000000 1.042497,401.000000 
	C1.042497,267.732239 1.042497,134.464432 1.042497,1.098323 
	C165.888351,1.098323 330.776764,1.098323 495.832581,1.098323 
	C495.832581,134.333160 495.832581,267.666565 495.832581,401.000000 
	C432.797729,401.000000 369.648865,401.000000 306.000000,401.000000 
M436.896088,190.445267 
	C436.354004,189.810410 435.811951,189.175568 435.206848,188.198532 
	C435.206848,188.198532 434.893951,188.046402 434.864471,187.368866 
	C432.558685,185.287674 430.252869,183.206497 427.539948,180.659302 
	C427.179779,180.463882 426.819641,180.268448 426.545532,179.729691 
	C426.545532,179.729691 426.242218,179.548615 426.242218,179.548615 
	C426.242218,179.548615 426.052979,179.846786 425.428650,179.350327 
	C425.172180,179.280243 424.915710,179.210144 424.272308,178.614868 
	C422.950256,177.976593 421.687561,177.131363 420.296844,176.732208 
	C407.003601,172.916763 393.726318,169.036224 380.369202,165.455032 
	C367.255585,161.939087 354.054474,158.749313 340.292389,155.155960 
	C339.859161,155.140900 339.425964,155.125839 338.591492,154.666016 
	C338.024719,154.579285 337.457947,154.492554 336.230804,154.112976 
	C334.834961,153.805481 333.439148,153.497986 331.550934,152.875381 
	C331.360962,152.918701 331.170959,152.962006 330.443176,152.624573 
	C329.598816,152.433578 328.754456,152.242584 327.626160,151.721924 
	C327.107025,151.607422 326.587860,151.492935 325.341736,151.047791 
	C324.339661,150.729507 323.337555,150.411224 322.513824,149.988602 
	C322.513824,149.988602 322.421661,149.877472 322.421661,149.877472 
	C322.421661,149.877472 322.476685,150.130661 321.615448,150.080948 
	C318.581604,149.313293 315.527710,148.616333 312.517883,147.763855 
	C305.330353,145.728119 303.073761,142.785278 303.025787,135.450439 
	C302.992035,130.290115 302.929749,125.127060 303.053375,119.969383 
	C303.196045,114.018135 305.956360,110.343163 311.593781,108.630310 
	C315.403259,107.472847 319.266144,106.444733 323.160980,105.623573 
	C334.353302,103.263878 345.596954,101.145203 356.776611,98.728989 
	C366.714478,96.581154 376.582031,94.109879 386.503815,91.884750 
	C391.469513,90.771103 395.377167,92.188026 397.299896,97.915810 
	C397.409149,102.203445 397.562775,106.490555 397.613556,110.778885 
	C397.653900,114.183327 399.179108,115.645752 402.597870,114.914070 
	C413.605621,112.558182 424.656616,110.378815 435.582306,107.689926 
	C437.471558,107.224968 440.159088,104.657181 440.221344,102.977097 
	C440.645203,91.537361 440.491791,80.075081 440.427826,68.620628 
	C440.422791,67.718452 439.683472,66.820374 439.550537,65.368736 
	C439.023499,64.618980 438.496429,63.869228 438.016785,63.034637 
	C438.016785,63.034637 437.933044,62.985302 438.012115,62.255257 
	C432.155151,48.576569 417.066010,41.635216 402.366821,46.046692 
	C401.930145,46.161407 401.493500,46.276123 400.255188,46.175278 
	C369.162323,52.877335 338.063568,59.552334 306.988159,66.334305 
	C304.578979,66.860092 302.333679,68.136665 299.344604,68.985039 
	C298.912628,69.090378 298.480621,69.195717 297.415466,69.152435 
	C296.617493,69.473427 295.819519,69.794418 294.357208,69.997223 
	C293.922363,70.093857 293.487518,70.190491 292.268219,70.156258 
	C290.017517,70.736801 287.758545,71.287094 285.517487,71.902748 
	C270.196411,76.111732 262.369843,86.115761 262.280609,101.843277 
	C262.184265,118.817703 262.049591,135.795120 262.271759,152.766800 
	C262.384857,161.407669 264.255951,169.596466 272.222382,175.717941 
	C273.095978,176.417435 273.948029,177.146011 274.846527,177.811905 
	C283.025879,183.873856 292.949646,185.326370 302.373871,187.906433 
	C328.994781,195.194366 355.753174,201.980377 382.370056,209.282440 
	C392.887054,212.167679 398.076355,214.558960 398.042023,229.953552 
	C398.031250,234.784729 397.849487,239.623184 398.050476,244.445618 
	C398.522064,255.761200 395.342682,260.423584 382.885925,263.079712 
	C349.743683,270.146698 316.592041,277.172424 283.489563,284.421967 
	C269.114319,287.570160 262.958496,295.927856 262.538666,305.949768 
	C262.246277,312.930450 262.632629,319.937805 262.630768,326.933228 
	C262.629913,330.213867 264.355591,330.949341 267.159149,330.309143 
	C286.480255,325.897339 305.773987,321.361908 325.124817,317.084808 
	C354.587921,310.572540 384.066895,304.127380 413.586151,297.875854 
	C427.110229,295.011749 436.989716,286.118408 439.083313,272.289551 
	C440.442047,263.314789 440.172943,254.057922 440.204742,244.925980 
	C440.256927,229.944366 439.960846,214.961548 440.178192,199.572144 
	C439.747192,198.457932 439.316162,197.343719 438.813324,195.525833 
	C438.664276,195.343140 438.515228,195.160461 438.780914,194.775284 
	C438.139313,193.604004 437.497711,192.432724 436.929810,191.143417 
	C436.929810,191.143417 436.801605,191.089279 436.896088,190.445267 
M188.570801,114.422012 
	C188.888931,115.698807 189.207077,116.975594 189.588501,119.153999 
	C189.565033,140.354126 189.541565,161.554260 188.804596,183.044846 
	C189.050613,187.107941 189.296631,191.171051 189.774933,195.285172 
	C189.774933,195.285172 189.868912,195.066696 189.538193,195.539917 
	C189.497299,195.922195 189.456406,196.304474 188.727478,197.054916 
	C188.562103,197.684082 188.253296,198.312988 188.252106,198.942474 
	C188.210327,220.967804 188.174164,242.993256 188.238617,265.018402 
	C188.242477,266.337708 189.083618,267.654602 189.378601,269.625549 
	C189.398727,270.067932 189.418839,270.510284 189.226562,271.628632 
	C190.823883,273.690491 192.421204,275.752350 194.311005,278.456177 
	C195.423004,280.312500 196.500458,282.190521 197.652573,284.021606 
	C205.405869,296.344177 205.412109,296.346832 219.414429,293.714874 
	C220.222351,293.563049 221.006058,292.920471 221.772247,292.968231 
	C226.253891,293.247528 227.418243,290.678314 227.318954,286.847137 
	C227.288940,285.689423 227.507095,284.526947 227.507965,283.366547 
	C227.524384,261.534698 227.569443,239.702713 227.509674,217.871048 
	C227.481979,207.753220 227.243835,197.635986 227.276230,186.936600 
	C227.329956,161.111542 227.341110,135.286270 227.477585,109.461655 
	C227.501511,104.934113 226.073029,103.663773 221.459061,104.847084 
	C211.804016,107.323212 201.990173,109.175064 192.283890,111.462921 
	C191.072235,111.748512 190.116837,113.121323 188.570801,114.422012 
M52.435314,63.596825 
	C52.302940,65.756340 52.046391,67.916489 52.057442,70.075272 
	C52.164852,91.057945 52.433533,112.040421 52.426479,133.022873 
	C52.418022,158.167892 52.125256,183.312698 52.065945,208.457855 
	C52.003841,234.786102 52.013420,261.114929 52.123470,287.442963 
	C52.153080,294.527008 52.662045,301.609070 52.979172,309.383514 
	C66.544502,306.275696 79.099152,303.399445 92.469696,300.336273 
	C92.469696,270.774597 92.469696,241.477005 92.469696,211.396835 
	C94.586563,213.440704 95.832573,214.643753 97.345169,216.491058 
	C122.311958,252.989304 147.278748,289.487549 172.245056,326.666687 
	C173.282852,328.331177 174.392090,329.955841 175.346085,331.667053 
	C179.526581,339.165619 183.451935,341.050903 192.086548,339.615021 
	C197.954773,338.639191 203.833481,337.720520 209.685974,336.657776 
	C214.199829,335.838074 218.680237,334.834076 223.943130,333.754578 
	C219.905945,327.929871 216.467072,322.968414 212.838974,317.328522 
	C201.039368,299.656219 189.263153,281.968201 177.432632,264.316620 
	C168.223419,250.576157 158.995697,236.847580 149.686554,223.174759 
	C139.474213,208.175308 129.159073,193.245850 119.000610,178.448868 
	C133.225571,156.686020 147.113068,135.574341 160.857285,114.369797 
	C172.062119,97.083031 183.095596,79.685204 194.722778,61.898579 
	C198.513123,56.637928 202.358826,51.414490 205.973587,46.035839 
	C206.223984,45.663250 204.643921,43.226727 204.104294,43.292908 
	C200.716537,43.708374 197.382431,44.561459 193.393707,45.197037 
	C192.979355,45.287827 192.564987,45.378616 191.511047,45.239704 
	C190.681717,45.567791 189.852371,45.895878 188.384125,46.156147 
	C187.968338,46.240482 187.552567,46.324818 186.324493,46.253372 
	C179.183762,47.570492 172.007416,48.725193 164.918762,50.279804 
	C161.819931,50.959408 157.768784,51.587112 156.109894,53.744995 
	C150.944977,60.463425 146.717316,67.902382 141.823792,75.266777 
	C141.823792,75.266777 141.739578,75.622185 141.160492,75.873230 
	C140.813248,76.602364 140.466003,77.331505 139.840164,78.295364 
	C139.840164,78.295364 139.781494,78.654900 139.128372,78.868164 
	C137.580261,80.778030 135.861313,82.574837 134.510651,84.615402 
	C122.131523,103.317535 109.822884,122.066322 97.472595,140.787598 
	C96.196495,142.721985 94.783333,144.565964 93.433762,146.451904 
	C92.800880,146.273331 92.167992,146.094757 91.535110,145.916183 
	C91.535110,115.306107 91.535110,84.696030 91.535110,53.319180 
	C77.955032,56.441906 65.673454,59.262489 53.399975,62.117878 
	C53.188576,62.167053 53.074963,62.636559 52.435314,63.596825 
z"/>
<path fill="#F9FAFB" opacity="1.000000" stroke="none" 
	d="
M338.992737,155.110779 
	C339.425964,155.125839 339.859161,155.140900 340.694763,155.622345 
	C368.951172,163.772507 396.805176,171.456284 424.659210,179.140060 
	C424.915710,179.210144 425.172180,179.280243 425.761505,179.697083 
	C426.094360,180.043839 426.459473,180.073013 426.459473,180.073013 
	C426.819641,180.268448 427.179779,180.463882 427.763245,181.230865 
	C430.289001,183.883743 432.591461,185.965073 434.893951,188.046402 
	C434.893951,188.046402 435.206848,188.198532 435.149231,188.710403 
	C435.661621,189.844604 436.231628,190.466934 436.801605,191.089264 
	C436.801605,191.089279 436.929810,191.143417 436.832001,191.520905 
	C437.278198,192.924850 437.822174,193.951324 438.366180,194.977783 
	C438.515228,195.160461 438.664276,195.343140 438.776245,196.216202 
	C439.096680,197.930786 439.454163,198.955017 439.811646,199.979233 
	C439.960846,214.961548 440.256927,229.944366 440.204742,244.925980 
	C440.172943,254.057922 440.442047,263.314789 439.083313,272.289551 
	C436.989716,286.118408 427.110229,295.011749 413.586151,297.875854 
	C384.066895,304.127380 354.587921,310.572540 325.124817,317.084808 
	C305.773987,321.361908 286.480255,325.897339 267.159149,330.309143 
	C264.355591,330.949341 262.629913,330.213867 262.630768,326.933228 
	C262.632629,319.937805 262.246277,312.930450 262.538666,305.949768 
	C262.958496,295.927856 269.114319,287.570160 283.489563,284.421967 
	C316.592041,277.172424 349.743683,270.146698 382.885925,263.079712 
	C395.342682,260.423584 398.522064,255.761200 398.050476,244.445618 
	C397.849487,239.623184 398.031250,234.784729 398.042023,229.953552 
	C398.076355,214.558960 392.887054,212.167679 382.370056,209.282440 
	C355.753174,201.980377 328.994781,195.194366 302.373871,187.906433 
	C292.949646,185.326370 283.025879,183.873856 274.846527,177.811905 
	C273.948029,177.146011 273.095978,176.417435 272.090912,175.046875 
	C265.402191,166.151550 263.669159,156.679214 263.928101,146.374084 
	C264.295990,131.732971 264.513245,117.054604 263.877594,102.432022 
	C263.339233,90.047249 272.521393,75.726173 287.092926,72.933342 
	C289.172180,72.534828 291.070587,71.192604 293.052673,70.287132 
	C293.487518,70.190491 293.922363,70.093857 294.878540,70.294518 
	C296.282806,70.161560 297.165710,69.731308 298.048645,69.301056 
	C298.480621,69.195717 298.912628,69.090378 299.923157,69.264397 
	C306.611816,68.217468 312.716553,66.865555 318.833099,65.569527 
	C340.371216,61.005814 361.940430,56.583260 383.436676,51.830719 
	C389.418579,50.508205 395.189240,48.230385 401.056824,46.390835 
	C401.493500,46.276123 401.930145,46.161407 403.004639,46.387520 
	C409.975067,47.427208 416.440369,47.550716 422.606201,48.972847 
	C430.050354,50.689823 433.329163,57.732010 437.933044,62.985302 
	C437.933044,62.985302 438.016785,63.034637 437.937622,63.416138 
	C438.143646,64.869209 438.428864,65.940781 438.769287,67.477097 
	C438.815430,75.612396 438.806366,83.282974 438.613892,91.125496 
	C438.260925,91.758537 438.091309,92.219627 437.542664,92.769417 
	C435.396027,93.216728 433.628418,93.575348 431.728760,93.941238 
	C431.424561,93.989044 431.267426,94.061859 430.753662,94.360634 
	C429.002502,94.764412 427.622986,94.974518 425.930847,95.130829 
	C425.074921,95.334763 424.531647,95.592506 423.622070,95.977600 
	C415.514709,98.186836 407.773621,100.268730 400.395935,102.252892 
	C399.180389,100.124229 398.336151,98.645851 397.491943,97.167473 
	C395.377167,92.188026 391.469513,90.771103 386.503815,91.884750 
	C376.582031,94.109879 366.714478,96.581154 356.776611,98.728989 
	C345.596954,101.145203 334.353302,103.263878 323.160980,105.623573 
	C319.266144,106.444733 315.403259,107.472847 311.593781,108.630310 
	C305.956360,110.343163 303.196045,114.018135 303.053375,119.969383 
	C302.929749,125.127060 302.992035,130.290115 303.025787,135.450439 
	C303.073761,142.785278 305.330353,145.728119 312.517883,147.763855 
	C315.527710,148.616333 318.581604,149.313293 322.016907,150.073395 
	C322.418396,150.065826 322.335480,150.092926 322.335480,150.092926 
	C323.337555,150.411224 324.339661,150.729507 325.824921,151.469681 
	C326.842102,151.944916 327.376099,151.998260 327.910095,152.051605 
	C328.754456,152.242584 329.598816,152.433578 330.766113,153.015015 
	C331.407135,153.333817 331.725220,153.262146 332.043304,153.190491 
	C333.439148,153.497986 334.834961,153.805481 336.583740,154.528442 
	C337.622040,154.999512 338.307404,155.055145 338.992737,155.110779 
z"/>
<path fill="#FBFBFC" opacity="1.000000" stroke="none" 
	d="
M187.136780,46.409149 
	C187.552567,46.324818 187.968338,46.240482 188.880951,46.427696 
	C190.302078,46.289299 191.226349,45.879353 192.150635,45.469406 
	C192.564987,45.378616 192.979355,45.287827 193.978149,45.493610 
	C197.498260,45.549442 200.433899,45.308704 204.116287,45.006729 
	C200.476120,51.371609 197.340591,56.854118 194.205048,62.336620 
	C183.095596,79.685204 172.062119,97.083031 160.857285,114.369797 
	C147.113068,135.574341 133.225571,156.686020 119.000610,178.448868 
	C129.159073,193.245850 139.474213,208.175308 149.686554,223.174759 
	C158.995697,236.847580 168.223419,250.576157 177.432632,264.316620 
	C189.263153,281.968201 201.039368,299.656219 212.596222,317.832581 
	C200.903580,321.045166 189.470413,323.828766 177.986465,326.384155 
	C176.191269,326.783630 174.164978,326.144592 172.245544,325.985779 
	C147.278748,289.487549 122.311958,252.989304 97.306709,215.813263 
	C95.575859,212.571518 93.883469,210.007553 92.191078,207.443604 
	C91.547585,207.695068 90.904083,207.946548 90.260590,208.198013 
	C90.260590,209.920990 90.260468,211.643951 90.260605,213.366913 
	C90.262268,234.021530 90.194199,254.676620 90.336945,275.330261 
	C90.359734,278.628265 89.251755,279.985382 86.090698,280.739075 
	C80.107506,282.165680 74.244682,284.092041 68.316078,285.754486 
	C63.735809,287.038849 59.131447,288.237305 53.828995,289.664764 
	C53.828995,213.865433 53.828995,138.947235 54.167694,63.835320 
	C66.047737,60.944950 77.589081,58.248302 89.983429,55.352352 
	C89.983429,72.163353 89.916733,87.943832 90.002296,103.723495 
	C90.086899,119.327339 89.477013,134.961945 91.309479,150.731888 
	C93.244308,149.776321 94.377434,148.697067 95.222580,147.426300 
	C108.099808,128.063934 120.974464,108.699608 133.754547,89.273132 
	C135.986526,85.880417 137.783569,82.201584 139.781494,78.654900 
	C139.781494,78.654900 139.840164,78.295364 140.324417,78.128143 
	C141.118973,77.181343 141.429276,76.401764 141.739563,75.622185 
	C141.739578,75.622185 141.823792,75.266777 142.312866,75.134697 
	C145.913269,70.728203 149.675720,66.776703 151.991211,62.107613 
	C155.982468,54.059464 162.754089,51.894951 170.777969,50.707882 
	C176.321548,49.887749 181.690048,47.883980 187.136780,46.409149 
z"/>
<path fill="#6E5DD3" opacity="1.000000" stroke="none" 
	d="
M189.438965,270.952667 
	C189.418839,270.510284 189.398727,270.067932 189.633331,269.308289 
	C189.888046,268.991028 190.225815,268.883087 190.471497,268.569733 
	C190.811447,252.891968 190.864899,237.527084 191.044724,222.163666 
	C191.071213,219.900681 191.696854,217.644699 192.403824,215.248611 
	C203.769516,211.578094 214.776657,208.044449 225.838135,204.493347 
	C225.838135,198.300156 225.838135,192.494461 226.035095,186.734268 
	C226.521744,187.026001 226.811432,187.272247 227.101105,187.518478 
	C227.243835,197.635986 227.481979,207.753220 227.509674,217.871048 
	C227.569443,239.702713 227.524384,261.534698 227.507965,283.366547 
	C227.507095,284.526947 227.288940,285.689423 227.318954,286.847137 
	C227.418243,290.678314 226.253891,293.247528 221.772247,292.968231 
	C221.006058,292.920471 220.222351,293.563049 219.414429,293.714874 
	C205.412109,296.346832 205.405869,296.344177 197.652573,284.021606 
	C196.500458,282.190521 195.423004,280.312500 194.143524,277.796021 
	C192.463699,275.074829 190.951324,273.013763 189.438965,270.952667 
z"/>
<path fill="#FCFDFE" opacity="1.000000" stroke="none" 
	d="
M189.518082,182.754379 
	C189.541565,161.554260 189.565033,140.354126 189.737717,118.308395 
	C189.927353,116.309090 189.967773,115.155388 190.389389,113.920654 
	C202.269257,111.204727 213.767944,108.569839 225.628967,105.851913 
	C225.628967,132.680359 225.628967,158.742035 225.251221,184.858276 
	C222.971085,185.419113 221.056854,185.884918 219.168335,186.438446 
	C209.398239,189.302185 199.634720,192.188354 189.868912,195.066696 
	C189.868912,195.066696 189.774933,195.285172 189.837006,194.808289 
	C189.772079,190.472382 189.645081,186.613388 189.518082,182.754379 
z"/>
<path fill="#7A74C3" opacity="1.000000" stroke="none" 
	d="
M53.828995,64.029045 
	C53.828995,138.947235 53.828995,213.865433 53.828995,289.664764 
	C59.131447,288.237305 63.735809,287.038849 68.316078,285.754486 
	C74.244682,284.092041 80.107506,282.165680 86.090698,280.739075 
	C89.251755,279.985382 90.359734,278.628265 90.336945,275.330261 
	C90.194199,254.676620 90.262268,234.021530 90.260605,213.366913 
	C90.260468,211.643951 90.260590,209.920990 90.260590,208.198013 
	C90.904083,207.946548 91.547585,207.695068 92.191078,207.443604 
	C93.883469,210.007553 95.575859,212.571518 97.173416,215.491119 
	C95.832573,214.643753 94.586563,213.440704 92.469696,211.396835 
	C92.469696,241.477005 92.469696,270.774597 92.469696,300.336273 
	C79.099152,303.399445 66.544502,306.275696 52.979172,309.383514 
	C52.662045,301.609070 52.153080,294.527008 52.123470,287.442963 
	C52.013420,261.114929 52.003841,234.786102 52.065945,208.457855 
	C52.125256,183.312698 52.418022,158.167892 52.426479,133.022873 
	C52.433533,112.040421 52.164852,91.057945 52.057442,70.075272 
	C52.046391,67.916489 52.302940,65.756340 52.792839,63.469955 
	C53.279510,63.667759 53.505722,63.896408 53.828995,64.029045 
z"/>
<path fill="#C8D2FB" opacity="1.000000" stroke="none" 
	d="
M189.703552,195.303314 
	C199.634720,192.188354 209.398239,189.302185 219.168335,186.438446 
	C221.056854,185.884918 222.971085,185.419113 225.321960,185.169708 
	C225.793030,185.847321 225.815582,186.268036 225.838135,186.688766 
	C225.838135,192.494461 225.838135,198.300156 225.838135,204.493347 
	C214.776657,208.044449 203.769516,211.578094 192.081299,215.143280 
	C190.953659,215.117233 190.507126,215.059631 190.021637,214.534958 
	C189.793640,208.274185 189.604584,202.480469 189.415512,196.686752 
	C189.456406,196.304474 189.497299,195.922195 189.703552,195.303314 
z"/>
<path fill="#705FDC" opacity="1.000000" stroke="none" 
	d="
M172.245300,326.326233 
	C174.164978,326.144592 176.191269,326.783630 177.986465,326.384155 
	C189.470413,323.828766 200.903580,321.045166 212.690826,318.171753 
	C216.467072,322.968414 219.905945,327.929871 223.943130,333.754578 
	C218.680237,334.834076 214.199829,335.838074 209.685974,336.657776 
	C203.833481,337.720520 197.954773,338.639191 192.086548,339.615021 
	C183.451935,341.050903 179.526581,339.165619 175.346085,331.667053 
	C174.392090,329.955841 173.282852,328.331177 172.245300,326.326233 
z"/>
<path fill="#705FDC" opacity="1.000000" stroke="none" 
	d="
M438.797241,90.953545 
	C438.806366,83.282974 438.815430,75.612396 438.839233,67.276939 
	C438.862274,66.297012 439.006104,66.066460 439.285400,65.920387 
	C439.683472,66.820374 440.422791,67.718452 440.427826,68.620628 
	C440.491791,80.075081 440.645203,91.537361 440.221344,102.977097 
	C440.159088,104.657181 437.471558,107.224968 435.582306,107.689926 
	C424.656616,110.378815 413.605621,112.558182 402.597870,114.914070 
	C399.179108,115.645752 397.653900,114.183327 397.613556,110.778885 
	C397.562775,106.490555 397.409149,102.203445 397.395935,97.541641 
	C398.336151,98.645851 399.180389,100.124229 400.395935,102.252892 
	C407.773621,100.268730 415.514709,98.186836 423.930328,96.024040 
	C425.151062,95.690300 425.697266,95.437469 426.243469,95.184631 
	C427.622986,94.974518 429.002502,94.764412 430.888489,94.464874 
	C431.658203,94.342690 431.813507,94.195526 431.860840,93.933968 
	C433.628418,93.575348 435.396027,93.216728 437.832397,92.740768 
	C438.599884,92.066795 438.698547,91.510170 438.797241,90.953545 
z"/>
<path fill="#B4BBC6" opacity="1.000000" stroke="none" 
	d="
M54.167694,63.835320 
	C53.505722,63.896408 53.279510,63.667759 53.033039,63.126511 
	C53.074963,62.636559 53.188576,62.167053 53.399975,62.117878 
	C65.673454,59.262489 77.955032,56.441906 91.535110,53.319180 
	C91.535110,84.696030 91.535110,115.306107 91.535110,145.916183 
	C92.167992,146.094757 92.800880,146.273331 93.433762,146.451904 
	C94.783333,144.565964 96.196495,142.721985 97.472595,140.787598 
	C109.822884,122.066322 122.131523,103.317535 134.510651,84.615402 
	C135.861313,82.574837 137.580261,80.778030 139.454926,78.761536 
	C137.783569,82.201584 135.986526,85.880417 133.754547,89.273132 
	C120.974464,108.699608 108.099808,128.063934 95.222580,147.426300 
	C94.377434,148.697067 93.244308,149.776321 91.309479,150.731888 
	C89.477013,134.961945 90.086899,119.327339 90.002296,103.723495 
	C89.916733,87.943832 89.983429,72.163353 89.983429,55.352352 
	C77.589081,58.248302 66.047737,60.944950 54.167694,63.835320 
z"/>
<path fill="#DADFE7" opacity="1.000000" stroke="none" 
	d="
M292.660461,70.221695 
	C291.070587,71.192604 289.172180,72.534828 287.092926,72.933342 
	C272.521393,75.726173 263.339233,90.047249 263.877594,102.432022 
	C264.513245,117.054604 264.295990,131.732971 263.928101,146.374084 
	C263.669159,156.679214 265.402191,166.151550 271.959717,174.733978 
	C264.255951,169.596466 262.384857,161.407669 262.271759,152.766800 
	C262.049591,135.795120 262.184265,118.817703 262.280609,101.843277 
	C262.369843,86.115761 270.196411,76.111732 285.517487,71.902748 
	C287.758545,71.287094 290.017517,70.736801 292.660461,70.221695 
z"/>
<path fill="#B1B9C6" opacity="1.000000" stroke="none" 
	d="
M226.035095,186.734268 
	C225.815582,186.268036 225.793030,185.847321 225.699722,185.115143 
	C225.628967,158.742035 225.628967,132.680359 225.628967,105.851913 
	C213.767944,108.569839 202.269257,111.204727 190.148178,113.904053 
	C189.525772,113.968491 189.042709,113.990356 189.042709,113.990356 
	C190.116837,113.121323 191.072235,111.748512 192.283890,111.462921 
	C201.990173,109.175064 211.804016,107.323212 221.459061,104.847084 
	C226.073029,103.663773 227.501511,104.934113 227.477585,109.461655 
	C227.341110,135.286270 227.329956,161.111542 227.188660,187.227539 
	C226.811432,187.272247 226.521744,187.026001 226.035095,186.734268 
z"/>
<path fill="#DADFE7" opacity="1.000000" stroke="none" 
	d="
M400.656006,46.283054 
	C395.189240,48.230385 389.418579,50.508205 383.436676,51.830719 
	C361.940430,56.583260 340.371216,61.005814 318.833099,65.569527 
	C312.716553,66.865555 306.611816,68.217468 300.256958,69.304016 
	C302.333679,68.136665 304.578979,66.860092 306.988159,66.334305 
	C338.063568,59.552334 369.162323,52.877335 400.656006,46.283054 
z"/>
<path fill="#C3C8D1" opacity="1.000000" stroke="none" 
	d="
M424.465759,178.877472 
	C396.805176,171.456284 368.951172,163.772507 340.994446,155.752563 
	C354.054474,158.749313 367.255585,161.939087 380.369202,165.455032 
	C393.726318,169.036224 407.003601,172.916763 420.296844,176.732208 
	C421.687561,177.131363 422.950256,177.976593 424.465759,178.877472 
z"/>
<path fill="#555787" opacity="1.000000" stroke="none" 
	d="
M189.071503,196.870834 
	C189.604584,202.480469 189.793640,208.274185 189.996964,215.000854 
	C190.082748,233.583572 190.154282,251.233322 190.225815,268.883087 
	C190.225815,268.883087 189.888046,268.991028 189.711609,268.981812 
	C189.083618,267.654602 188.242477,266.337708 188.238617,265.018402 
	C188.174164,242.993256 188.210327,220.967804 188.252106,198.942474 
	C188.253296,198.312988 188.562103,197.684082 189.071503,196.870834 
z"/>
<path fill="#B4BBC6" opacity="1.000000" stroke="none" 
	d="
M186.730637,46.331261 
	C181.690048,47.883980 176.321548,49.887749 170.777969,50.707882 
	C162.754089,51.894951 155.982468,54.059464 151.991211,62.107613 
	C149.675720,66.776703 145.913269,70.728203 142.464050,75.032257 
	C146.717316,67.902382 150.944977,60.463425 156.109894,53.744995 
	C157.768784,51.587112 161.819931,50.959408 164.918762,50.279804 
	C172.007416,48.725193 179.183762,47.570492 186.730637,46.331261 
z"/>
<path fill="#DADFE7" opacity="1.000000" stroke="none" 
	d="
M437.972595,62.620277 
	C433.329163,57.732010 430.050354,50.689823 422.606201,48.972847 
	C416.440369,47.550716 409.975067,47.427208 403.340729,46.447586 
	C417.066010,41.635216 432.155151,48.576569 437.972595,62.620277 
z"/>
<path fill="#B4BBC6" opacity="1.000000" stroke="none" 
	d="
M194.463913,62.117599 
	C197.340591,56.854118 200.476120,51.371609 204.116287,45.006729 
	C200.433899,45.308704 197.498260,45.549442 194.296600,45.529991 
	C197.382431,44.561459 200.716537,43.708374 204.104294,43.292908 
	C204.643921,43.226727 206.223984,45.663250 205.973587,46.035839 
	C202.358826,51.414490 198.513123,56.637928 194.463913,62.117599 
z"/>
<path fill="#555787" opacity="1.000000" stroke="none" 
	d="
M189.161346,182.899612 
	C189.645081,186.613388 189.772079,190.472382 189.720856,194.782776 
	C189.296631,191.171051 189.050613,187.107941 189.161346,182.899612 
z"/>
<path fill="#C3C8D1" opacity="1.000000" stroke="none" 
	d="
M434.879211,187.707642 
	C432.591461,185.965073 430.289001,183.883743 427.966797,181.463867 
	C430.252869,183.206497 432.558685,185.287674 434.879211,187.707642 
z"/>
<path fill="#555787" opacity="1.000000" stroke="none" 
	d="
M189.332764,271.290649 
	C190.951324,273.013763 192.463699,275.074829 193.997284,277.475037 
	C192.421204,275.752350 190.823883,273.690491 189.332764,271.290649 
z"/>
<path fill="#555787" opacity="1.000000" stroke="none" 
	d="
M188.806763,114.206184 
	C189.042709,113.990356 189.525772,113.968491 189.766983,113.985085 
	C189.967773,115.155388 189.927353,116.309090 189.706085,117.857590 
	C189.207077,116.975594 188.888931,115.698807 188.806763,114.206184 
z"/>
<path fill="#C3C8D1" opacity="1.000000" stroke="none" 
	d="
M438.573547,194.876526 
	C437.822174,193.951324 437.278198,192.924850 436.795166,191.579926 
	C437.497711,192.432724 438.139313,193.604004 438.573547,194.876526 
z"/>
<path fill="#DADFE7" opacity="1.000000" stroke="none" 
	d="
M439.417969,65.644562 
	C439.006104,66.066460 438.862274,66.297012 438.783997,66.812210 
	C438.428864,65.940781 438.143646,64.869209 437.913879,63.458553 
	C438.496429,63.869228 439.023499,64.618980 439.417969,65.644562 
z"/>
<path fill="#C3C8D1" opacity="1.000000" stroke="none" 
	d="
M439.994934,199.775696 
	C439.454163,198.955017 439.096680,197.930786 438.812195,196.568039 
	C439.316162,197.343719 439.747192,198.457932 439.994934,199.775696 
z"/>
<path fill="#B4BBC6" opacity="1.000000" stroke="none" 
	d="
M191.830841,45.354553 
	C191.226349,45.879353 190.302078,46.289299 189.200409,46.461605 
	C189.852371,45.895878 190.681717,45.567791 191.830841,45.354553 
z"/>
<path fill="#DADFE7" opacity="1.000000" stroke="none" 
	d="
M297.732056,69.226746 
	C297.165710,69.731308 296.282806,70.161560 295.210693,70.353607 
	C295.819519,69.794418 296.617493,69.473427 297.732056,69.226746 
z"/>
<path fill="#C3C8D1" opacity="1.000000" stroke="none" 
	d="
M327.768127,151.886765 
	C327.376099,151.998260 326.842102,151.944916 326.188416,151.635010 
	C326.587860,151.492935 327.107025,151.607422 327.768127,151.886765 
z"/>
<path fill="#B4BBC6" opacity="1.000000" stroke="none" 
	d="
M141.450027,75.747711 
	C141.429276,76.401764 141.118973,77.181343 140.463715,78.010780 
	C140.466003,77.331505 140.813248,76.602364 141.450027,75.747711 
z"/>
<path fill="#C3C8D1" opacity="1.000000" stroke="none" 
	d="
M436.848846,190.767273 
	C436.231628,190.466934 435.661621,189.844604 435.180756,188.881500 
	C435.811951,189.175568 436.354004,189.810410 436.848846,190.767273 
z"/>
<path fill="#C3C8D1" opacity="1.000000" stroke="none" 
	d="
M338.792114,154.888397 
	C338.307404,155.055145 337.622040,154.999512 336.913940,154.674866 
	C337.457947,154.492554 338.024719,154.579285 338.792114,154.888397 
z"/>
<path fill="#C3C8D1" opacity="1.000000" stroke="none" 
	d="
M426.502502,179.901352 
	C426.459473,180.073013 426.094360,180.043839 426.073669,179.945312 
	C426.052979,179.846786 426.242218,179.548615 426.242218,179.548615 
	C426.242218,179.548615 426.545532,179.729691 426.502502,179.901352 
z"/>
<path fill="#C3C8D1" opacity="1.000000" stroke="none" 
	d="
M331.797119,153.032928 
	C331.725220,153.262146 331.407135,153.333817 331.035034,153.205399 
	C331.170959,152.962006 331.360962,152.918701 331.797119,153.032928 
z"/>
<path fill="#C3C8D1" opacity="1.000000" stroke="none" 
	d="
M322.424652,150.040771 
	C322.335480,150.092926 322.418396,150.065826 322.447540,150.098236 
	C322.476685,150.130661 322.421661,149.877472 322.421661,149.877472 
	C322.421661,149.877472 322.513824,149.988602 322.424652,150.040771 
z"/>
<path fill="#DADFE7" opacity="1.000000" stroke="none" 
	d="
M438.613892,91.125496 
	C438.698547,91.510170 438.599884,92.066795 438.211487,92.652069 
	C438.091309,92.219627 438.260925,91.758537 438.613892,91.125496 
z"/>
<path fill="#DADFE7" opacity="1.000000" stroke="none" 
	d="
M425.930847,95.130829 
	C425.697266,95.437469 425.151062,95.690300 424.296600,95.896698 
	C424.531647,95.592506 425.074921,95.334763 425.930847,95.130829 
z"/>
<path fill="#DADFE7" opacity="1.000000" stroke="none" 
	d="
M431.728760,93.941238 
	C431.813507,94.195526 431.658203,94.342690 431.260132,94.271210 
	C431.267426,94.061859 431.424561,93.989044 431.728760,93.941238 
z"/>
<path fill="#7970D7" opacity="1.000000" stroke="none" 
	d="
M190.471497,268.569733 
	C190.154282,251.233322 190.082748,233.583572 190.035904,215.467911 
	C190.507126,215.059631 190.953659,215.117233 191.722748,215.280151 
	C191.696854,217.644699 191.071213,219.900681 191.044724,222.163666 
	C190.864899,237.527084 190.811447,252.891968 190.471497,268.569733 
z"/>
</svg>